<svg width="16" height="16" viewBox="0 0 16 16" fill="none" xmlns="http://www.w3.org/2000/svg">
<path d="M8 15.5C12.1421 15.5 15.5 12.1421 15.5 8C15.5 6.35408 14.9698 4.832 14.0709 3.59521C14.091 3.26985 14.0747 2.98894 14.0516 2.78073L14.0499 2.76539C15.2649 4.16839 16 5.99835 16 8C16 12.4183 12.4183 16 8 16C3.58172 16 0 12.4183 0 8C0 3.58172 3.58172 0 8 0C10.0016 0 11.8316 0.735121 13.2346 1.95011L13.2192 1.94838C13.011 1.92524 12.7301 1.90903 12.4048 1.92908C11.168 1.03018 9.64591 0.5 8 0.5C3.85786 0.5 0.5 3.85786 0.5 8C0.5 12.1421 3.85786 15.5 8 15.5Z" fill="black"/>
<path d="M4 9.5C4.26734 9.5 4.52488 9.54196 4.7664 9.61966L5.45098 7.56585C5.52423 7.34608 5.64617 7.1467 5.81169 6.98119L9.64642 3.14645C10.2913 2.50161 11.0172 2.18265 11.6648 2.03485C10.5989 1.37857 9.34364 1 8 1C4.13401 1 1 4.13401 1 8C1 9.08857 1.24848 10.1191 1.69181 11.038C2.06868 10.1348 2.96021 9.5 4 9.5Z" fill="black"/>
<path d="M8 15C11.866 15 15 11.866 15 8C15 6.65635 14.6214 5.40113 13.9651 4.33516C13.8173 4.98273 13.4984 5.70872 12.8535 6.35356L9.01881 10.1883C8.8533 10.3538 8.65392 10.4757 8.43416 10.549L6.38034 11.2336C6.45804 11.4751 6.5 11.7327 6.5 12C6.5 13.0398 5.86521 13.9313 4.96203 14.3082C5.8809 14.7515 6.91143 15 8 15Z" fill="black"/>
<path d="M3.60397 13.4478C3.03792 12.9904 2.54459 12.4467 2.14404 11.8365C2.29829 11.6725 2.56529 11.6016 2.82135 11.6696L3.0377 11.7271C3.08556 11.558 3.17676 11.4072 3.29853 11.2873L2.58576 10.5807C2.77148 10.3966 2.99196 10.2506 3.23461 10.1509C3.47726 10.0513 3.73733 10 3.99998 10C4.26262 10 4.5227 10.0513 4.76535 10.1509C5.16609 10.3155 5.16555 10.8272 4.85884 11.1313L4.70145 11.2873C4.82324 11.4072 4.91444 11.558 4.9623 11.7271L5.93187 11.4695C5.99984 11.721 6.01719 11.9833 5.9829 12.2415C5.94862 12.4996 5.86339 12.7485 5.73207 12.974C5.60074 13.1995 5.42591 13.3971 5.21754 13.5556C4.87316 13.8176 4.42599 13.5587 4.31291 13.1403L4.26537 12.9644C4.18086 12.9876 4.09188 13 4 13C3.90812 13 3.81914 12.9876 3.73463 12.9644L3.60397 13.4478Z" fill="black"/>
<path fill-rule="evenodd" clip-rule="evenodd" d="M6.17905 10.7737C5.95461 10.3757 5.6243 10.0454 5.22635 9.82096L5.92532 7.72397C5.97442 7.57669 6.05546 7.44452 6.16524 7.33475L9.99998 3.50001C11.5 2.00002 13.5 2.50001 13.5 2.50001C13.5 2.50001 14 4.50002 12.5 6.00002L8.66526 9.83474C8.55549 9.94452 8.42333 10.0256 8.27605 10.0747L6.17905 10.7737ZM11 3.50001L8.49999 6.00001V5.91423C8.49999 5.64901 8.60535 5.39466 8.79288 5.20712L10.6464 3.35357C10.7769 3.2231 11 3.3155 11 3.50001Z" fill="black"/>
</svg>
